<?xml version="1.0" standalone="no"?>
<!DOCTYPE svg PUBLIC "-//W3C//DTD SVG 20010904//EN"
 "http://www.w3.org/TR/2001/REC-SVG-20010904/DTD/svg10.dtd">
<svg version="1.0" xmlns="http://www.w3.org/2000/svg"
 width="1920.000000pt" height="1080.000000pt" viewBox="0 0 1920.000000 1080.000000"
 preserveAspectRatio="xMidYMid meet">

<g transform="translate(0.000000,1080.000000) scale(0.100000,-0.100000)"
fill="#000000" stroke="none">
<path d="M4190 7064 c-161 -42 -218 -168 -158 -351 27 -85 209 -447 306 -610
229 -385 255 -563 82 -563 -54 0 -99 20 -150 66 -61 56 -87 102 -140 249 -43
120 -48 130 -73 133 -39 5 -42 -16 -18 -120 58 -251 168 -364 378 -389 236
-28 381 39 391 181 8 109 -24 184 -273 645 -87 160 -178 331 -202 380 -25 50
-68 124 -94 166 -27 42 -49 87 -49 101 0 39 40 68 101 75 142 14 234 -67 279
-244 8 -32 16 -43 30 -43 24 0 26 23 6 96 -31 115 -105 208 -185 232 -52 16
-164 14 -231 -4z"/>
<path d="M9380 7065 c-157 -44 -214 -163 -160 -338 24 -77 214 -462 296 -597
78 -130 167 -306 190 -377 10 -32 19 -81 19 -110 0 -70 -24 -95 -98 -101 -66
-5 -135 26 -190 87 -47 52 -61 81 -116 231 -43 116 -48 125 -74 128 -17 2 -29
-2 -33 -11 -9 -26 35 -186 75 -272 69 -147 154 -207 322 -227 154 -18 287 10
346 74 31 33 43 71 43 134 0 100 -32 173 -268 609 -74 138 -164 306 -200 375
-36 69 -85 156 -109 193 -23 37 -43 75 -43 85 0 53 69 88 156 79 109 -11 176
-78 217 -214 17 -58 25 -73 40 -73 18 0 19 5 14 48 -13 110 -84 229 -161 269
-44 23 -195 27 -266 8z"/>
<path d="M8380 7025 c0 -3 -7 -63 -15 -133 -9 -70 -19 -180 -24 -245 -4 -65
-13 -123 -19 -129 -6 -6 -52 -17 -104 -24 -136 -21 -193 -36 -193 -54 0 -13
22 -15 148 -12 l147 4 0 -244 c0 -302 14 -509 42 -611 33 -126 117 -236 220
-288 66 -34 147 -59 190 -59 76 0 161 52 209 128 33 52 38 73 11 49 -27 -24
-32 -12 -15 35 26 75 54 270 47 326 -7 57 -20 68 -29 25 -19 -94 -73 -231
-117 -304 -52 -83 -135 -179 -156 -179 -22 0 -45 52 -58 133 -10 59 -14 205
-14 529 0 416 1 448 18 457 9 5 69 14 132 20 146 15 174 21 163 32 -13 13
-153 26 -229 23 -37 -2 -67 1 -77 9 -12 9 -21 55 -37 186 -26 214 -52 290
-107 319 -21 12 -133 17 -133 7z"/>
<path d="M6872 6758 c-7 -7 -12 -28 -12 -49 0 -63 70 -116 119 -89 12 6 21 19
21 29 0 28 -29 104 -43 113 -19 12 -72 9 -85 -4z"/>
<path d="M5303 6649 c-56 -27 -164 -134 -213 -211 -111 -172 -144 -512 -65
-675 56 -116 205 -232 340 -268 153 -39 251 0 315 125 32 62 97 347 86 376 -9
23 -19 11 -47 -56 -51 -123 -106 -179 -185 -188 -44 -5 -47 -3 -95 44 -134
132 -180 300 -129 467 34 109 140 247 202 262 22 6 33 1 57 -22 36 -36 51 -88
51 -175 0 -64 11 -91 30 -72 16 16 42 167 35 203 -17 95 -75 169 -153 196 -67
22 -177 20 -229 -6z"/>
<path d="M10865 6608 l-13 -33 -104 0 c-100 0 -107 -1 -180 -38 -133 -65 -223
-176 -279 -342 -84 -250 -52 -445 98 -591 68 -66 149 -114 192 -114 45 0 98
20 151 55 29 19 54 35 57 35 2 0 3 -63 1 -141 -3 -137 -2 -141 20 -159 20 -17
37 -19 126 -16 117 3 155 18 193 74 34 51 42 113 53 415 15 391 9 449 -67 680
-49 151 -101 207 -193 207 -37 0 -42 -3 -55 -32z m-27 -80 c17 -17 15 -89 -13
-381 -30 -325 -42 -353 -160 -402 -34 -15 -36 -14 -60 9 -28 28 -54 110 -57
181 -6 144 36 416 77 494 21 41 58 70 116 91 64 23 81 24 97 8z"/>
<path d="M11488 6630 c-43 -13 -118 -69 -118 -89 0 -25 179 -498 242 -641 83
-189 218 -453 246 -483 67 -71 115 -74 172 -9 67 75 97 136 151 307 138 435
192 598 227 690 41 103 43 125 12 125 -13 0 -24 -16 -38 -52 -11 -29 -41 -96
-66 -148 -26 -52 -64 -151 -86 -220 -56 -179 -153 -435 -165 -436 -5 -1 -24
33 -41 75 -17 42 -49 112 -71 156 -22 44 -55 125 -73 180 -41 124 -153 422
-173 461 -39 75 -132 110 -219 84z"/>
<path d="M12693 6621 c-55 -26 -103 -62 -103 -78 0 -18 170 -469 227 -602 72
-168 230 -486 259 -520 31 -37 73 -61 107 -61 34 0 118 93 156 173 16 34 55
145 86 247 87 287 150 478 201 610 36 93 44 124 35 133 -18 18 -40 -2 -65 -63
-13 -30 -46 -104 -74 -165 -27 -60 -59 -144 -70 -186 -24 -85 -149 -429 -162
-442 -4 -5 -17 16 -29 47 -11 30 -40 95 -65 143 -24 48 -67 156 -96 238 -110
314 -170 459 -202 492 -52 54 -131 67 -205 34z"/>
<path d="M6303 6590 c-24 -10 -61 -33 -82 -50 l-39 -32 -31 23 c-30 22 -35 22
-107 12 -42 -6 -80 -15 -85 -20 -10 -10 31 -714 51 -896 16 -137 26 -149 155
-182 55 -15 60 -15 72 1 7 10 13 24 13 31 0 8 12 42 28 76 27 62 27 63 26 277
-1 234 -10 317 -54 487 -30 117 -30 144 4 196 34 51 121 40 161 -21 13 -20 37
-77 53 -127 16 -49 38 -108 50 -130 21 -42 66 -75 100 -75 49 0 38 173 -17
284 -32 65 -101 143 -139 157 -39 15 -114 10 -159 -11z"/>
<path d="M13810 6572 c0 -70 30 -277 51 -347 53 -181 189 -319 382 -390 42
-15 81 -33 87 -40 8 -9 4 -55 -14 -158 -43 -248 -59 -428 -60 -657 -1 -209 0
-216 23 -256 48 -84 88 -79 180 21 118 130 130 175 212 815 45 349 55 559 32
675 -11 58 -25 147 -38 248 -4 28 -16 58 -30 75 -21 24 -29 27 -82 25 -72 -3
-88 -20 -98 -100 -4 -32 -24 -164 -46 -293 -33 -201 -42 -238 -61 -253 -15
-13 -30 -16 -52 -12 -41 9 -130 69 -167 114 -44 53 -143 253 -199 401 -62 164
-65 170 -95 170 -22 0 -25 -4 -25 -38z"/>
<path d="M6855 6488 c-26 -76 -38 -623 -16 -723 18 -84 66 -180 102 -206 16
-11 48 -23 69 -26 34 -5 43 -1 70 25 26 26 30 38 30 85 0 29 -9 97 -20 151
-12 58 -24 173 -30 289 -15 276 -35 368 -87 395 -34 18 -113 24 -118 10z"/>
<path d="M7353 6438 c-34 -16 -42 -51 -53 -223 -26 -410 5 -1202 50 -1286 5
-9 26 -24 47 -33 21 -9 47 -23 59 -31 19 -14 23 -13 45 7 14 13 46 40 72 61
63 52 71 84 63 267 -4 80 -9 184 -12 232 -6 83 -5 87 18 101 12 8 45 17 72 21
99 12 205 97 260 208 63 127 10 329 -123 470 -90 96 -163 131 -279 133 -48 1
-90 3 -93 4 -4 0 -12 15 -19 31 -20 47 -59 61 -107 38z m279 -150 c113 -36
121 -43 160 -158 40 -118 19 -315 -43 -399 -30 -42 -103 -101 -124 -101 -8 0
-15 54 -24 173 -12 186 -47 405 -78 500 -7 22 -8 22 109 -15z"/>
</g>
</svg>
